<?xml version="1.0" encoding="utf-8"?>
<!-- Generator: Adobe Illustrator 16.0.0, SVG Export Plug-In . SVG Version: 6.00 Build 0)  -->
<!DOCTYPE svg PUBLIC "-//W3C//DTD SVG 1.1//EN" "http://www.w3.org/Graphics/SVG/1.1/DTD/svg11.dtd">
<svg version="1.1" id="Capa_1" xmlns="http://www.w3.org/2000/svg" xmlns:xlink="http://www.w3.org/1999/xlink" x="0px" y="0px"
	 width="175px" height="105px" viewBox="0 0 175 105" enable-background="new 0 0 175 105" xml:space="preserve">
<g>
	<path fill="#FFFFFF" d="M12-2v110h149V-2H12z M62.189,45.787c-5.994,0-5.994-9.017,0-9.017S68.184,45.787,62.189,45.787z
		 M150.486,50.295c-5.992,0-5.992-9.016,0-9.016C156.478,41.279,156.478,50.295,150.486,50.295z"/>
	<path d="M74.122,58.34l-1.656,6.369h-3.809l6.293-23.076h4.514l5.922,23.076h-3.85L79.92,58.34H74.122L74.122,58.34L74.122,58.34z
		 M79.464,55.771l-1.283-5.515c-0.373-1.575-0.748-3.63-1.036-5.274h-0.167c-0.29,1.68-0.705,3.802-1.077,5.274l-1.324,5.515H79.464
		L79.464,55.771z"/>
	<path d="M99.926,41.018v19.413c0,1.265,0.084,3.116,0.169,4.281h-3.354l-0.249-2.021h-0.126c-0.663,1.166-2.192,2.292-4.221,2.292
		c-3.729,0-6.006-3.356-6.006-8.525c0-5.89,3.021-8.662,6.212-8.662c1.614,0,2.902,0.617,3.603,1.885h0.088v-8.665h3.89v0.002
		H99.926z M96.036,54.404c0-0.311,0-0.685-0.044-1.029c-0.211-1.505-1.24-2.806-2.648-2.806c-2.445,0-3.271,2.806-3.271,5.889
		c0,3.425,1.074,5.82,3.146,5.82c0.87,0,2.032-0.375,2.69-2.361c0.082-0.275,0.124-0.685,0.124-1.063L96.036,54.404L96.036,54.404z"
		/>
	<path d="M109.2,64.979c-4.014,0-6.916-2.84-6.916-8.556c0-6.062,3.436-8.629,7.122-8.629c3.975,0,6.834,2.944,6.834,8.563
		c0,6.604-3.935,8.624-6.998,8.624h-0.04L109.2,64.979L109.2,64.979z M109.325,62.451c2.402,0,2.94-3.529,2.94-6.065
		c0-2.498-0.537-6.059-3.023-6.059c-2.569,0-3.064,3.561-3.064,6.059c0,2.775,0.581,6.065,3.105,6.065H109.325L109.325,62.451z"/>
	<path d="M118.583,41.018h3.895v8.936h0.081c1.037-1.506,2.443-2.159,4.227-2.159c3.437,0,5.591,3.218,5.591,8.321
		c0,5.958-2.942,8.867-6.254,8.867c-1.989,0-3.107-0.89-3.974-2.361h-0.166l-0.206,2.091h-3.352
		c0.084-1.133,0.164-3.015,0.164-4.282V41.018H118.583L118.583,41.018z M122.477,58.821c0,0.376,0.044,0.752,0.166,1.025
		c0.619,2.022,1.823,2.43,2.608,2.43c2.318,0,3.188-2.533,3.188-5.958c0-3.185-0.91-5.752-3.228-5.752
		c-1.284,0-2.323,1.267-2.61,2.466c-0.084,0.342-0.125,0.788-0.125,1.13V58.821L122.477,58.821L122.477,58.821z"/>
	<path d="M138.118,57.038c0.04,4.283,2.278,5.341,4.642,5.341c1.403,0,2.602-0.274,3.471-0.615l0.582,2.328
		c-1.199,0.512-3.021,0.787-4.804,0.787c-5.053,0-7.704-3.151-7.704-8.286c0-5.441,3.025-8.798,7.207-8.798
		c4.188,0,6.132,3.324,6.132,7.5c0,0.817-0.041,1.335-0.084,1.778L138.118,57.038L138.118,57.038L138.118,57.038z M143.954,54.747
		c0.044-2.946-1.196-4.52-2.728-4.52c-2.034,0-2.942,2.429-3.068,4.52H143.954L143.954,54.747z"/>
	<path fill="#BF0024" d="M57.711,41.693H46.72l11.626,23.016V43.727C57.983,43.112,57.77,42.409,57.711,41.693z"/>
	<polygon fill="#BF0024" points="38.529,41.693 26.893,41.693 26.893,64.709 	"/>
	<polygon fill="#BF0024" points="42.626,50.174 50.033,64.709 45.178,64.709 42.962,60.078 37.542,60.078 	"/>
</g>
</svg>
