<?xml version="1.0" encoding="utf-8"?>
<!-- Generator: Adobe Illustrator 16.0.0, SVG Export Plug-In . SVG Version: 6.00 Build 0)  -->
<!DOCTYPE svg PUBLIC "-//W3C//DTD SVG 1.1//EN" "http://www.w3.org/Graphics/SVG/1.1/DTD/svg11.dtd">
<svg version="1.1"
	 id="svg2" sodipodi:docname="alcatel-logo.svg" inkscape:version="0.48.5 r10040" xmlns:svg="http://www.w3.org/2000/svg" xmlns:cc="http://creativecommons.org/ns#" xmlns:inkscape="http://www.inkscape.org/namespaces/inkscape" xmlns:dc="http://purl.org/dc/elements/1.1/" xmlns:sodipodi="http://sodipodi.sourceforge.net/DTD/sodipodi-0.dtd" xmlns:rdf="http://www.w3.org/1999/02/22-rdf-syntax-ns#"
	 xmlns="http://www.w3.org/2000/svg" xmlns:xlink="http://www.w3.org/1999/xlink" x="0px" y="0px" width="175px" height="105px"
	 viewBox="0 0 175 105" enable-background="new 0 0 175 105" xml:space="preserve">
<sodipodi:namedview  inkscape:pageopacity="0" inkscape:window-y="-8" inkscape:window-x="-8" fit-margin-right="0" inkscape:window-width="1366" inkscape:current-layer="svg2" inkscape:pageshadow="2" inkscape:window-height="706" inkscape:window-maximized="1" fit-margin-bottom="0" objecttolerance="10" pagecolor="#ffffff" inkscape:zoom="0.69748686" id="namedview21" fit-margin-top="0" inkscape:cy="1.9490238" inkscape:cx="239.28185" bordercolor="#666666" showgrid="false" fit-margin-left="0" gridtolerance="10" guidetolerance="10" borderopacity="1">
	</sodipodi:namedview>
<g id="surface1" transform="translate(-229.51953,-217.71875)">
	<path id="path13_1_" inkscape:connector-curvature="0" fill="#00A1E3" d="M304.906,277.068"/>
</g>
<polygon fill="#38558A" points="112.82,52.695 112.82,45.808 112.831,45.808 112.831,45.738 112.893,45.703 118.07,42.693 
	118.07,40.331 110.8,44.557 110.8,54.121 110.8,55.66 112.831,54.48 112.831,52.695 "/>
<polygon fill="#38558A" points="113.074,51.666 118.07,48.761 118.07,42.974 113.074,45.879 "/>
<polygon fill="#38558A" points="120.469,58.768 127.74,54.541 120.475,50.32 113.203,54.547 "/>
<polygon fill="#38558A" points="101.009,38.848 101.009,50.113 110.557,55.66 110.557,54.121 110.557,53.268 103.039,48.902 
	103.039,40.028 103.102,39.993 110.678,35.591 110.738,35.626 118.314,40.028 118.314,48.902 118.254,48.938 113.074,51.947 
	113.074,54.34 120.348,50.113 120.348,38.848 110.678,33.23 "/>
<polygon fill="#38558A" points="110.617,44.381 117.968,40.109 110.678,35.873 103.283,40.17 103.283,48.761 110.557,52.986 
	110.557,44.486 110.557,44.416 "/>
<polygon fill="#38558A" points="120.408,59.014 112.961,54.688 110.93,55.867 120.469,61.41 130.018,55.861 127.984,54.682 
	120.469,59.049 "/>
<polygon fill="#38558A" points="132.654,52.695 132.654,54.328 137.58,51.469 137.58,49.086 132.654,51.945 "/>
<polygon fill="#38558A" points="128.045,31.873 122.865,34.883 122.865,36.133 122.865,37.243 130.137,33.017 130.137,28.826 
	128.107,28.826 128.107,31.837 "/>
<polygon fill="#38558A" points="122.865,40.332 122.865,42.693 128.107,45.738 128.107,51.807 130.137,52.986 130.137,44.556 "/>
<polygon fill="#38558A" points="122.865,42.975 122.865,48.76 127.863,51.666 127.863,45.879 "/>
<polygon fill="#38558A" points="137.55,40.109 135.518,38.928 130.259,41.984 130.199,41.949 125.002,38.928 122.968,40.11 
	130.259,44.345 "/>
<polygon fill="#38558A" points="137.58,37.2 137.58,34.838 132.413,31.837 132.413,28.826 130.381,28.826 130.381,33.019 "/>
<polygon fill="#38558A" points="132.654,51.664 137.58,48.805 137.58,43.018 132.654,45.879 "/>
<polygon fill="#38558A" points="130.381,53.941 130.381,55.65 132.413,54.471 132.413,52.695 132.413,45.809 132.413,45.738 
	132.475,45.703 137.58,42.736 137.58,40.373 130.381,44.556 "/>
<polygon fill="#38558A" points="137.58,34.556 137.58,28.826 132.654,28.826 132.654,31.697 "/>
<polygon fill="#38558A" points="120.591,38.848 120.591,50.104 130.137,55.65 130.137,53.941 130.137,53.268 122.622,48.902 
	122.622,40.028 122.684,39.993 130.26,35.591 130.32,35.626 137.58,39.845 137.58,37.483 130.26,33.23 "/>
<polygon fill="#38558A" points="120.591,38.565 122.622,37.385 122.622,36.132 122.622,28.825 120.591,28.825 120.591,37.364 "/>
<polygon fill="#38558A" points="130.502,55.863 137.58,59.977 137.58,57.613 132.535,54.682 "/>
<g>
	<polygon fill="#3E649B" points="41.443,41.763 41.443,41.763 52.48,36.166 52.549,36.203 63.509,41.758 63.519,41.754 
		63.587,41.789 74.693,47.42 74.693,58.779 74.625,58.814 63.655,64.374 63.655,68.5 140.486,68.5 140.486,27 33.189,27 
		33.189,37.579 	"/>
	<polygon fill="#3E649B" points="129.496,53.734 129.496,53.734 118.38,59.332 118.313,59.298 107.273,53.74 107.264,53.746 
		107.193,53.71 96.01,48.079 96.01,36.72 96.079,36.685 107.126,31.126 107.126,27 29.75,27 29.75,68.5 137.809,68.5 
		137.809,57.921 	"/>
</g>
<polygon fill="#3E649B" points="120.348,35.921 120.348,28.825 113.074,28.825 113.074,31.697 "/>
<polygon fill="#3E649B" points="127.863,31.697 127.863,28.825 122.865,28.825 122.865,34.601 "/>
<polygon fill="#3E649B" points="118.324,37.39 120.348,38.566 120.348,37.365 120.348,36.202 112.831,31.837 112.831,28.826 
	110.8,28.826 110.8,33.017 "/>
<polygon fill="#3E649B" points="137.58,57.33 137.58,51.752 132.777,54.541 "/>
<polygon fill="#3E649B" points="135.275,38.788 130.259,35.873 125.243,38.788 130.259,41.701 "/>
<polygon fill="#A3C25C" points="110.557,54.121 110.557,55.66 110.678,55.73 110.801,55.66 110.801,54.121 "/>
<polygon fill="#A3C25C" points="130.137,53.941 130.137,55.65 130.259,55.721 130.382,55.65 130.382,53.941 "/>
<polygon fill="#A3C25C" points="130.018,55.861 120.469,61.41 110.93,55.867 110.686,56.01 120.408,61.656 120.469,61.691 
	130.259,56.004 130.199,55.969 "/>
<polygon fill="#A3C25C" points="117.968,40.11 110.617,44.381 110.557,44.416 110.557,44.486 110.8,44.486 110.8,44.557 
	118.07,40.331 118.07,40.17 "/>
<polygon fill="#A3C25C" points="113.064,51.953 113.064,52.695 112.831,52.695 112.831,54.48 113.074,54.342 113.074,51.947 "/>
<polygon fill="#A3C25C" points="113.064,51.672 113.074,51.666 113.074,45.879 118.07,42.975 118.07,42.693 112.893,45.703 
	112.831,45.738 112.831,45.809 113.064,45.809 "/>
<polygon fill="#A3C25C" points="113.202,54.547 112.961,54.688 120.408,59.014 120.469,59.049 127.984,54.682 127.74,54.541 
	120.469,58.768 "/>
<polygon fill="#A3C25C" points="122.865,42.693 122.865,42.974 127.863,45.879 127.863,51.666 128.107,51.807 128.107,45.738 "/>
<polygon fill="#A3C25C" points="130.259,56.004 137.58,60.258 137.58,59.977 130.502,55.863 "/>
<polygon fill="#A3C25C" points="132.535,54.682 137.58,57.613 137.58,57.33 132.777,54.541 "/>
<polygon fill="#A3C25C" points="132.413,52.695 132.413,54.471 132.656,54.328 132.656,52.695 "/>
<polygon fill="#A3C25C" points="132.413,45.738 132.413,45.809 132.654,45.809 132.654,45.879 137.58,43.018 137.58,42.736 
	132.475,45.703 "/>
<polygon fill="#A3C25C" points="120.348,37.364 120.348,38.565 120.469,38.635 120.591,38.565 120.591,37.364 "/>
<polygon fill="#A3C25C" points="130.259,44.345 122.968,40.11 122.865,40.17 122.865,40.331 130.137,44.555 130.137,44.486 
	130.382,44.486 130.382,44.555 137.58,40.373 137.58,40.126 137.55,40.109 "/>
<polygon fill="#A3C25C" points="122.622,36.132 122.622,37.385 122.865,37.243 122.865,36.132 "/>
<polygon fill="#A3C25C" points="130.259,41.984 135.518,38.928 135.275,38.788 130.259,41.702 125.243,38.788 125.002,38.928 
	130.199,41.949 "/>
<polygon fill="#7DB3E4" points="122.865,37.243 122.622,37.385 120.591,38.565 120.469,38.636 120.471,38.636 130.259,32.948 
	130.32,32.984 130.381,33.019 130.381,28.826 130.137,28.826 130.137,33.018 "/>
<polygon fill="#7DB3E4" points="110.678,32.948 110.738,32.984 118.324,37.39 110.8,33.018 110.8,28.826 110.555,28.826 
	110.555,33.019 "/>
<polygon fill="#7DB3E4" points="122.865,34.6 122.865,34.882 128.045,31.873 128.107,31.837 128.107,28.826 127.863,28.826 
	127.863,31.696 "/>
<polygon fill="#7DB3E4" points="120.348,36.202 120.348,35.921 113.074,31.697 113.074,28.826 112.831,28.826 112.831,31.837 "/>
<polygon fill="#7DB3E4" points="137.58,34.838 137.58,34.556 132.654,31.697 132.654,28.826 132.413,28.826 132.413,31.838 "/>
<polygon fill="#7DB3E4" points="112.961,54.688 113.202,54.547 120.475,50.32 120.348,50.246 120.348,50.111 113.074,54.34 
	112.831,54.48 110.8,55.66 110.678,55.73 110.557,55.66 101.009,50.111 101.009,38.848 110.678,33.23 120.348,38.848 
	120.348,38.799 120.348,38.706 120.408,38.671 120.469,38.635 120.348,38.565 118.324,37.39 110.738,32.983 110.678,32.949 
	110.557,33.018 100.824,38.671 100.766,38.706 100.766,50.254 110.617,55.977 110.678,56.014 110.686,56.01 110.93,55.867 "/>
<polygon fill="#7DB3E4" points="103.283,48.761 103.283,40.17 110.678,35.873 117.968,40.11 118.07,40.17 118.07,40.33 
	118.07,42.694 118.07,42.975 118.07,48.761 113.074,51.666 113.064,51.672 113.064,51.953 113.074,51.947 118.254,48.938 
	118.314,48.902 118.314,40.029 110.738,35.627 110.678,35.592 103.102,39.994 103.039,40.029 103.039,48.902 110.557,53.268 
	110.557,52.986 "/>
<polygon fill="#7DB3E4" points="130.32,32.984 130.259,32.948 120.471,38.636 120.406,38.671 120.348,38.706 120.348,38.798 
	120.348,38.848 120.348,50.113 120.348,50.246 120.475,50.32 127.74,54.541 127.984,54.682 130.018,55.861 130.197,55.969 
	130.259,56.004 130.502,55.863 132.535,54.682 132.777,54.541 137.58,51.752 137.58,51.469 132.654,54.328 132.413,54.471 
	130.381,55.65 130.259,55.721 130.137,55.65 120.591,50.104 120.591,38.848 130.259,33.23 137.58,37.483 137.58,37.2 
	130.381,33.019 "/>
<polygon fill="#7DB3E4" points="132.654,51.945 137.58,49.086 137.58,48.805 132.654,51.664 "/>
<polygon fill="#7DB3E4" points="130.259,35.592 122.684,39.993 122.622,40.029 122.622,48.902 130.137,53.268 130.137,52.986 
	128.107,51.807 127.863,51.666 122.865,48.76 122.865,42.975 122.865,42.693 122.865,40.331 122.865,40.17 122.968,40.11 
	125.002,38.927 125.243,38.787 130.259,35.873 135.275,38.787 135.518,38.927 137.55,40.11 137.58,40.126 137.58,39.844 
	130.32,35.627 "/>
<polygon fill="#A3C25C" points="120.348,28.825 120.348,35.921 120.348,36.203 120.348,37.364 120.591,37.364 120.591,28.825 "/>
<polygon fill="#A3C25C" points="122.622,28.825 122.622,36.132 122.865,36.132 122.865,34.882 122.865,34.6 122.865,28.825 "/>
<polygon fill="#A3C25C" points="132.413,45.808 132.413,52.695 132.656,52.695 132.656,51.945 132.656,51.666 132.656,45.879 
	132.656,45.808 "/>
<polygon fill="#A3C25C" points="110.557,44.487 110.557,52.986 110.557,53.268 110.557,54.121 110.801,54.121 110.801,44.557 
	110.801,44.487 "/>
<polygon fill="#A3C25C" points="112.831,45.808 112.82,45.808 112.82,52.695 112.831,52.695 113.064,52.695 113.064,51.953 
	113.064,51.672 113.064,45.808 "/>
<polygon fill="#A3C25C" points="130.137,44.487 130.137,44.556 130.137,52.986 130.137,53.268 130.137,53.941 130.382,53.941 
	130.382,44.556 130.382,44.487 "/>
<path fill="#FFFFFF" d="M68.226,42.46"/>
<path fill="#FFFFFF" d="M67.277,35.086c-1.126-0.96-2.451-1.468-3.968-1.606H50.551v1.606C50.551,35.09,67.277,35.086,67.277,35.086
	"/>
<path fill="#FFFFFF" d="M50.554,38.093h18.507c0-0.617-0.262-1.068-0.483-1.596H50.554V38.093z"/>
<path fill="#FFFFFF" d="M69.208,39.505h-5.312v1.604h5.065C69.134,40.628,69.208,40.055,69.208,39.505"/>
<rect x="53.916" y="39.507" fill="#FFFFFF" width="4.985" height="1.604"/>
<path fill="#FFFFFF" d="M53.916,44.057c0,0.004,12.892,0,12.892,0c0.539-0.412,1.106-1.061,1.419-1.594H53.916V44.057z"/>
<path fill="#FFFFFF" d="M68.318,47.066c-0.416-0.57-0.945-1.14-1.532-1.599h-12.87v1.599C53.916,47.066,68.341,47.064,68.318,47.066
	"/>
<path fill="#FFFFFF" d="M53.916,50.076h5.055c0.01,0,0.006-1.598,0.006-1.598h-5.06L53.916,50.076L53.916,50.076z"/>
<path fill="#FFFFFF" d="M63.983,48.479v1.604h5.363c-0.05-0.55-0.074-1.119-0.318-1.604H63.983z"/>
<path fill="#FFFFFF" d="M50.551,53.021h17.781l0.153,0.002c0.412-0.429,0.523-1.07,0.646-1.599h-18.58V53.021z"/>
<path fill="#FFFFFF" d="M50.551,56.041l12.488-0.003c1.686,0,3.209-0.591,4.334-1.599c-0.049,0-16.823-0.004-16.823-0.004
	L50.551,56.041L50.551,56.041z"/>
<polyline fill="#FFFFFF" points="93.844,39.508 85.783,39.507 85.181,41.11 93.844,41.11 93.837,39.508 "/>
<polygon fill="#FFFFFF" points="70.634,38.095 81.352,38.095 80.743,36.497 70.634,36.497 "/>
<rect x="88.956" y="45.47" fill="#FFFFFF" width="4.89" height="1.597"/>
<polygon fill="#FFFFFF" points="73.909,41.11 82.491,41.11 81.885,39.505 73.909,39.505 "/>
<rect x="88.956" y="48.477" fill="#FFFFFF" width="4.885" height="1.599"/>
<rect x="88.956" y="51.426" fill="#FFFFFF" width="8.174" height="1.598"/>
<polygon fill="#FFFFFF" points="83.768,56.035 83.999,56.035 84.597,54.436 83.186,54.436 "/>
<rect x="70.634" y="54.436" fill="#FFFFFF" width="8.177" height="1.603"/>
<polygon fill="#FFFFFF" points="80.209,35.086 79.604,33.479 70.634,33.48 70.64,35.086 "/>
<polygon fill="#FFFFFF" points="82.633,53.021 85.128,53.021 85.708,51.426 82.035,51.426 "/>
<polygon fill="#FFFFFF" points="83.609,44.057 83,42.459 73.908,42.459 73.908,44.057 78.811,44.057 78.811,42.839 79.265,44.057 
	"/>
<rect x="73.909" y="48.477" fill="#FFFFFF" width="4.902" height="1.597"/>
<rect x="73.909" y="45.47" fill="#FFFFFF" width="4.903" height="1.597"/>
<rect x="70.634" y="51.426" fill="#FFFFFF" width="8.177" height="1.596"/>
<rect x="88.956" y="54.436" fill="#FFFFFF" width="8.174" height="1.603"/>
<polygon fill="#FFFFFF" points="86.324,38.093 97.129,38.093 97.129,36.497 86.916,36.497 "/>
<polygon fill="#FFFFFF" points="87.45,35.085 97.13,35.085 97.13,33.482 88.059,33.482 "/>
<path fill="#FFFFFF" d="M81.531,50.076c0,0,4.699,0.016,4.699,0.007c0.001-0.007,0.603-1.604,0.611-1.604h-5.919
	C80.912,48.479,81.531,50.076,81.531,50.076"/>
<path fill="#FFFFFF" d="M80.409,47.07l6.964-0.002c0.023,0,0.574-1.602,0.596-1.6h-8.171C79.797,45.467,80.404,47.066,80.409,47.07"
	/>
<path fill="#FFFFFF" d="M93.844,44.057v-1.598h-9.18l-0.567,1.598h4.402c0-0.003,0.454-1.216,0.454-1.216s0.003,1.226,0.003,1.216
	H93.844z"/>
<polyline fill="#FFFFFF" points="37.424,54.438 37.424,56.038 49.041,56.041 49.038,54.436 37.42,54.438 "/>
<rect x="40.664" y="42.459" fill="#FFFFFF" width="4.992" height="1.598"/>
<rect x="40.664" y="39.514" fill="#FFFFFF" width="4.992" height="1.596"/>
<rect x="40.668" y="45.47" fill="#FFFFFF" width="4.987" height="1.597"/>
<rect x="37.422" y="36.497" fill="#FFFFFF" width="11.619" height="1.596"/>
<rect x="37.422" y="33.48" fill="#FFFFFF" width="11.619" height="1.603"/>
<rect x="40.672" y="48.477" fill="#FFFFFF" width="4.988" height="1.597"/>
<path fill="#FFFFFF" d="M49.035,51.426c0,0-11.625,0-11.612,0v1.596h11.612C49.041,53.025,49.031,51.426,49.035,51.426"/>
<path fill="#38558A" d="M144.311,65.713h-0.822v-0.277h1.953v0.277h-0.823v2.266h-0.308V65.713z M145.889,65.436h0.521l0.821,2.063
	l0.789-2.063h0.522v2.541h-0.327v-2.244h-0.014l-0.896,2.244h-0.182l-0.896-2.244h-0.017v2.244h-0.323v-2.541H145.889z"/>
<path fill="#38558A" d="M144.311,65.713h-0.822v-0.277h1.953v0.277h-0.823v2.266h-0.308V65.713z M145.889,65.436h0.521l0.821,2.063
	l0.789-2.063h0.522v2.541h-0.327v-2.244h-0.014l-0.896,2.244h-0.182l-0.896-2.244h-0.017v2.244h-0.323v-2.541H145.889z"/>
<path fill="#FFFFFF" d="M40.754,58.625c0.885,0,1.485,0.154,1.802,0.461c0.312,0.307,0.473,0.648,0.482,1.031
	c0,0.324-0.093,0.602-0.278,0.838c-0.185,0.236-0.447,0.412-0.788,0.523v0.02c0.443,0.078,0.779,0.246,1.016,0.508
	c0.234,0.262,0.351,0.582,0.351,0.957c0,0.5-0.207,0.912-0.618,1.246c-0.411,0.332-0.919,0.498-1.523,0.498h-3.509v-6.078h3.066
	L40.754,58.625L40.754,58.625z M40.605,61.24c0.483,0,0.85-0.076,1.1-0.227c0.252-0.15,0.378-0.398,0.378-0.744
	c0-0.318-0.106-0.558-0.318-0.72c-0.209-0.164-0.594-0.243-1.15-0.243h-1.971v1.934H40.605z M41.077,64.021
	c0.39,0,0.705-0.095,0.946-0.287c0.24-0.193,0.361-0.461,0.361-0.803c0-0.675-0.533-1.013-1.599-1.013h-2.141v2.103H41.077z"/>
<path fill="#FFFFFF" d="M45.081,60.303v2.998c0,0.254,0.091,0.463,0.282,0.627c0.186,0.16,0.446,0.242,0.773,0.242
	c0.502,0,0.885-0.125,1.145-0.375c0.263-0.248,0.392-0.574,0.392-0.979v-2.512h0.855v4.399h-0.804v-0.697h-0.019
	c-0.355,0.533-0.92,0.802-1.691,0.802c-1.192,0-1.788-0.521-1.788-1.566v-2.938h0.855V60.303z"/>
<path fill="#FFFFFF" d="M51.384,60.201c0.703,0,1.223,0.113,1.562,0.344c0.339,0.23,0.525,0.576,0.558,1.035h-0.855v-0.008
	c-0.028-0.238-0.149-0.42-0.366-0.545c-0.22-0.125-0.5-0.188-0.841-0.188c-0.341,0-0.611,0.05-0.81,0.146
	c-0.196,0.096-0.296,0.238-0.296,0.418c0,0.164,0.087,0.295,0.262,0.395c0.173,0.1,0.438,0.184,0.794,0.252l0.805,0.154
	c0.502,0.096,0.884,0.24,1.146,0.428c0.261,0.191,0.393,0.455,0.393,0.789c0,0.436-0.198,0.777-0.592,1.021
	c-0.396,0.244-0.937,0.365-1.62,0.365c-0.662,0-1.189-0.121-1.578-0.369c-0.39-0.248-0.598-0.619-0.623-1.119h0.854
	c0.013,0.271,0.141,0.479,0.383,0.631c0.239,0.146,0.579,0.219,1.016,0.219c0.836,0,1.257-0.217,1.257-0.654
	c0-0.195-0.104-0.346-0.306-0.461c-0.206-0.113-0.643-0.229-1.313-0.348c-0.637-0.107-1.092-0.26-1.368-0.451
	c-0.275-0.193-0.412-0.461-0.412-0.801c0-0.375,0.176-0.678,0.528-0.908C50.313,60.314,50.788,60.201,51.384,60.201"/>
<path fill="#FFFFFF" d="M55.416,59.512h-0.854v-0.887h0.854V59.512z M55.416,64.705h-0.854v-4.402h0.854V64.705z"/>
<path fill="#FFFFFF" d="M59.026,60.201c1.192,0,1.789,0.525,1.789,1.574v2.93H59.96v-3.004c0-0.244-0.09-0.449-0.271-0.613
	s-0.446-0.246-0.794-0.246c-0.49,0-0.866,0.123-1.131,0.375c-0.267,0.25-0.397,0.578-0.397,0.98v2.51h-0.854v-4.4h0.805v0.697h0.021
	C57.711,60.467,58.275,60.201,59.026,60.201"/>
<path fill="#FFFFFF" d="M64.032,60.201c0.738,0,1.315,0.225,1.731,0.674c0.415,0.447,0.624,1.035,0.624,1.762v0.084h-3.893v0.053
	c0,0.427,0.144,0.765,0.433,1.017c0.289,0.252,0.683,0.379,1.188,0.379c0.743,0,1.191-0.287,1.348-0.86h0.844
	c-0.114,0.496-0.366,0.868-0.756,1.121c-0.388,0.254-0.875,0.379-1.467,0.379c-0.819,0-1.439-0.228-1.861-0.683
	c-0.422-0.453-0.631-1.004-0.631-1.651c0-0.652,0.231-1.193,0.693-1.625C62.745,60.418,63.329,60.201,64.032,60.201 M65.48,62.084
	c-0.026-0.357-0.18-0.654-0.457-0.891c-0.278-0.236-0.628-0.354-1.05-0.354c-0.397,0-0.73,0.111-1.006,0.334
	c-0.274,0.226-0.433,0.527-0.473,0.91L65.48,62.084L65.48,62.084z"/>
<path fill="#FFFFFF" d="M69.019,60.201c0.705,0,1.226,0.113,1.564,0.344c0.339,0.23,0.523,0.576,0.557,1.035h-0.854v-0.008
	c-0.027-0.238-0.149-0.42-0.367-0.545c-0.218-0.125-0.5-0.188-0.839-0.188c-0.343,0-0.612,0.05-0.811,0.146
	c-0.197,0.096-0.295,0.238-0.295,0.418c0,0.164,0.086,0.295,0.26,0.395c0.176,0.1,0.441,0.184,0.796,0.252l0.803,0.154
	c0.505,0.096,0.885,0.24,1.147,0.428c0.262,0.191,0.391,0.455,0.391,0.789c0,0.436-0.195,0.777-0.592,1.021
	s-0.935,0.365-1.619,0.365c-0.663,0-1.189-0.121-1.578-0.369c-0.39-0.248-0.597-0.619-0.623-1.119h0.855
	c0.014,0.271,0.141,0.479,0.381,0.631c0.241,0.146,0.582,0.219,1.017,0.219c0.837,0,1.256-0.217,1.256-0.654
	c0-0.195-0.102-0.346-0.305-0.461c-0.206-0.113-0.643-0.229-1.313-0.348c-0.636-0.107-1.092-0.26-1.367-0.451
	c-0.275-0.193-0.412-0.461-0.412-0.801c0-0.375,0.177-0.678,0.528-0.908S68.426,60.201,69.019,60.201"/>
<path fill="#FFFFFF" d="M74.067,60.201c0.705,0,1.225,0.113,1.563,0.344c0.339,0.23,0.525,0.576,0.559,1.035h-0.855v-0.008
	c-0.025-0.238-0.148-0.42-0.367-0.545c-0.217-0.125-0.498-0.188-0.839-0.188c-0.341,0-0.612,0.05-0.81,0.146
	c-0.198,0.096-0.295,0.238-0.295,0.418c0,0.164,0.086,0.295,0.26,0.395c0.175,0.1,0.438,0.184,0.794,0.252l0.806,0.154
	c0.502,0.096,0.885,0.24,1.146,0.428c0.26,0.191,0.392,0.455,0.392,0.789c0,0.436-0.197,0.777-0.593,1.021s-0.934,0.365-1.619,0.365
	c-0.662,0-1.189-0.121-1.578-0.369c-0.39-0.248-0.598-0.619-0.623-1.119h0.855c0.014,0.271,0.14,0.479,0.382,0.631
	c0.241,0.146,0.579,0.219,1.016,0.219c0.839,0,1.258-0.217,1.258-0.654c0-0.195-0.104-0.346-0.307-0.461
	c-0.205-0.113-0.644-0.229-1.312-0.348c-0.639-0.107-1.094-0.26-1.369-0.451c-0.273-0.193-0.412-0.461-0.412-0.801
	c0-0.375,0.176-0.678,0.527-0.908S73.472,60.201,74.067,60.201"/>
<path fill="#FFFFFF" d="M83.819,58.576c0.65,0,1.172,0.15,1.564,0.451c0.392,0.301,0.588,0.748,0.588,1.344
	c0,0.576-0.186,1.018-0.558,1.33s-0.884,0.469-1.533,0.469h-2.302v2.486h-0.956v-6.08H83.819z M83.549,61.488
	c0.456,0,0.813-0.092,1.076-0.273c0.262-0.18,0.394-0.461,0.394-0.844c0-0.744-0.51-1.113-1.53-1.113H81.58v2.23H83.549z"/>
<path fill="#FFFFFF" d="M88.775,60.15c1.295,0,1.94,0.396,1.94,1.184v2.539c0,0.164,0.089,0.246,0.272,0.246
	c0.084,0,0.174-0.016,0.26-0.043v0.563c-0.166,0.08-0.37,0.119-0.611,0.119c-0.482,0-0.725-0.229-0.725-0.684
	c-0.455,0.455-1.064,0.684-1.829,0.684c-0.536,0-0.957-0.109-1.262-0.322c-0.306-0.211-0.458-0.518-0.458-0.912
	c0-0.393,0.152-0.703,0.453-0.938c0.301-0.229,1.002-0.405,2.102-0.526c0.375-0.039,0.628-0.101,0.76-0.185
	c0.133-0.08,0.195-0.201,0.195-0.36c0-0.482-0.387-0.724-1.156-0.724c-0.424,0-0.74,0.065-0.951,0.199
	c-0.211,0.135-0.326,0.346-0.346,0.637h-0.854C86.632,60.643,87.37,60.15,88.775,60.15 M87.269,63.473
	c0,0.203,0.088,0.361,0.262,0.478c0.175,0.112,0.422,0.17,0.745,0.17c0.463,0,0.843-0.099,1.141-0.291
	c0.298-0.19,0.447-0.422,0.447-0.688v-0.757c-0.152,0.091-0.354,0.15-0.604,0.177l-0.873,0.112
	c-0.383,0.045-0.664,0.132-0.844,0.259C87.358,63.057,87.269,63.238,87.269,63.473"/>
<path fill="#FFFFFF" d="M94.779,60.15v0.768c-0.643,0-1.116,0.143-1.422,0.43c-0.305,0.287-0.457,0.734-0.457,1.342v1.97h-0.854
	v-4.406h0.806v0.933h0.02c0.396-0.689,0.992-1.033,1.789-1.033h0.119V60.15z"/>
<path fill="#FFFFFF" d="M97.152,58.934v1.318h1.035v0.641h-1.035v2.758c0,0.132,0.029,0.226,0.091,0.283
	c0.063,0.058,0.213,0.082,0.452,0.082h0.492v0.644h-0.703c-0.444,0-0.75-0.064-0.926-0.189c-0.174-0.125-0.262-0.368-0.262-0.731
	v-2.844h-0.885v-0.642h0.885v-1.317h0.855V58.934z"/>
<path fill="#FFFFFF" d="M101.525,60.15c1.191,0,1.791,0.524,1.791,1.578v2.93h-0.856V61.65c0-0.246-0.09-0.447-0.271-0.611
	c-0.182-0.164-0.446-0.246-0.797-0.246c-0.488,0-0.865,0.125-1.129,0.375c-0.266,0.248-0.397,0.574-0.397,0.977v2.515h-0.854v-4.406
	h0.805v0.699h0.021C100.214,60.418,100.775,60.15,101.525,60.15"/>
<path fill="#FFFFFF" d="M106.534,60.15c0.737,0,1.315,0.225,1.729,0.674c0.416,0.447,0.625,1.037,0.625,1.762v0.086h-3.896v0.051
	c0,0.426,0.147,0.764,0.437,1.017c0.288,0.256,0.684,0.381,1.188,0.381c0.742,0,1.193-0.287,1.346-0.859h0.846
	c-0.113,0.494-0.363,0.867-0.756,1.119c-0.387,0.25-0.877,0.379-1.465,0.379c-0.82,0-1.439-0.229-1.859-0.684
	c-0.424-0.453-0.635-1.002-0.635-1.652c0-0.649,0.23-1.192,0.693-1.625C105.249,60.367,105.831,60.15,106.534,60.15 M107.982,62.033
	c-0.026-0.357-0.18-0.654-0.459-0.891c-0.276-0.236-0.625-0.353-1.049-0.353c-0.396,0-0.729,0.108-1.006,0.336
	c-0.275,0.224-0.434,0.524-0.473,0.906L107.982,62.033L107.982,62.033z"/>
<path fill="#FFFFFF" d="M112.479,60.15v0.768c-0.646,0-1.119,0.143-1.422,0.43c-0.306,0.287-0.459,0.734-0.459,1.342v1.97h-0.854
	v-4.406h0.805v0.933h0.021c0.396-0.689,0.992-1.033,1.791-1.033h0.119V60.15z"/>
<path fill-rule="evenodd" clip-rule="evenodd" fill="#3E649B" d="M79.881,77.688c-0.075-0.004-0.15-0.007-0.225-0.009
	c-0.501-1.221-1.025-2.439-1.484-3.665c-0.121-0.317-0.365-0.396-0.967-0.395c-0.597,0.001-0.852,0.074-0.978,0.397
	c-0.505,1.296-1.074,2.583-1.62,3.877c-0.263-0.037-0.227-0.142-0.264-0.226c-0.498-1.135-0.992-2.268-1.494-3.402
	c-0.291-0.657-0.297-0.657-1.615-0.625c-0.051,0.001-0.099,0.024-0.17,0.042c0.209,0.438,0.42,0.878,0.633,1.316
	c0.646,1.333,1.317,2.661,1.924,4c0.172,0.373,0.657,0.249,1.078,0.272c0.412,0.022,0.682-0.001,0.761-0.279
	c0.159-0.535,0.424-1.064,0.647-1.595c0.311-0.737,0.624-1.477,0.936-2.214c0.248,0.148,0.324,0.288,0.385,0.43
	c0.477,1.122,0.975,2.239,1.405,3.366c0.103,0.267,0.324,0.316,0.757,0.293c0.393-0.022,0.838,0.089,1.002-0.254
	c0.861-1.787,1.77-3.566,2.66-5.351c-1.424-0.086-1.418-0.086-1.744,0.605C80.968,75.412,80.424,76.549,79.881,77.688z"/>
<path fill-rule="evenodd" clip-rule="evenodd" fill="#3E649B" d="M68.275,78.593c0.019,0.156,0.063,0.248,0.032,0.334
	c-0.118,0.338,0.263,0.335,0.752,0.354c0.632,0.023,0.62-0.146,0.618-0.381c-0.01-2.359-0.016-4.722,0.008-7.083
	c0.002-0.294-0.15-0.365-0.72-0.379c-0.687-0.017-0.853,0.105-0.786,0.431c0.053,0.255,0.012,0.515,0.012,0.771
	c0,0.529,0,1.06,0,1.667c-1.82-1.045-4.105-0.991-5.281,0.109c-1.361,1.27-1.396,2.623-0.115,3.909
	C64.027,79.563,66.404,79.673,68.275,78.593z"/>
<path fill-rule="evenodd" clip-rule="evenodd" fill="#3E649B" d="M54.951,79.251c-0.435-0.452-0.424-0.907-0.442-1.36
	c-0.042-0.998-0.042-1.997-0.126-2.994c-0.061-0.724-0.798-1.124-2.155-1.283c-0.813-0.096-1.614-0.079-2.429-0.002
	c-1.379,0.13-2.236,0.547-2.611,1.233c-0.065,0.119-0.443,0.346,0.182,0.36c0.416,0.011,0.932,0.371,1.261-0.108
	c0.513-0.745,2.592-1.005,3.776-0.504c0.57,0.243,0.619,0.581,0.538,0.913c-0.069,0.29-0.652,0.257-1.037,0.309
	c-1.015,0.135-2.063,0.203-3.06,0.363c-1.676,0.267-2.496,1.2-1.963,2.137c0.442,0.773,1.967,1.178,3.637,0.997
	c1.009-0.109,1.737-0.45,2.508-0.783C53.496,79.412,53.027,79.272,54.951,79.251z"/>
<path fill-rule="evenodd" clip-rule="evenodd" fill="#3E649B" d="M90.363,78.498c0.325,0.941,0.15,0.778,1.865,0.745
	c-0.46-0.502-0.41-1.033-0.434-1.558c-0.047-0.937-0.035-1.877-0.119-2.813c-0.063-0.695-0.806-1.102-2.109-1.256
	c-0.811-0.098-1.613-0.083-2.43-0.01c-1.38,0.122-2.249,0.533-2.645,1.217c-0.076,0.132-0.451,0.373,0.216,0.389
	c0.411,0.01,0.926,0.357,1.236-0.138c0.462-0.734,2.651-0.981,3.792-0.467c0.525,0.236,0.564,0.556,0.514,0.874
	c-0.049,0.313-0.627,0.275-1.004,0.326c-1.014,0.137-2.062,0.207-3.061,0.362c-1.689,0.266-2.522,1.177-2.019,2.121
	c0.421,0.79,1.985,1.208,3.694,1.012C88.838,79.191,89.563,78.874,90.363,78.498z"/>
<path fill-rule="evenodd" clip-rule="evenodd" fill="#3E649B" d="M104.305,76.725c0.934,0,1.867-0.007,2.801,0.006
	c0.402,0.006,0.564-0.045,0.557-0.272c-0.018-0.579-0.107-1.15-0.594-1.681c-0.676-0.738-1.76-1.213-3.385-1.228
	c-1.654-0.014-2.896,0.41-3.546,1.175c-0.958,1.128-0.98,2.3-0.05,3.438c0.654,0.802,2.146,1.244,3.793,1.193
	c1.723-0.054,2.885-0.521,3.455-1.359c0.09-0.133,0.578-0.373-0.016-0.462c-0.484-0.071-1.098-0.384-1.51,0.16
	c-0.746,0.986-2.797,1.145-4.014,0.356c-0.476-0.307-0.622-0.676-0.77-1.048c-0.09-0.229,0.051-0.286,0.478-0.281
	C102.437,76.736,103.371,76.728,104.305,76.725z"/>
<path fill-rule="evenodd" clip-rule="evenodd" fill="#3E649B" d="M58.236,74.471c0-0.242-0.021-0.363,0.004-0.482
	c0.057-0.253-0.034-0.383-0.631-0.368c-0.523,0.016-0.758,0.047-0.75,0.368c0.035,1.646,0.023,3.295,0.009,4.942
	c-0.002,0.231,0.053,0.342,0.596,0.354c0.72,0.016,0.97-0.057,0.966-0.478c-0.007-1.101-0.181-2.206,0.113-3.304
	c0.17-0.634,0.849-1.121,2.308-0.924c0.474,0.065,0.495-0.108,0.528-0.241c0.051-0.197,0.589-0.393,0.072-0.601
	c-0.819-0.329-1.932-0.244-2.55,0.194C58.703,74.072,58.535,74.226,58.236,74.471z"/>
<path fill-rule="evenodd" clip-rule="evenodd" fill="#3E649B" d="M95.533,74.468c0-0.254-0.036-0.402,0.008-0.547
	c0.089-0.308-0.268-0.295-0.676-0.293c-0.4,0.004-0.711-0.019-0.706,0.292c0.027,1.692,0.013,3.385,0.016,5.077
	c0,0.112-0.076,0.234,0.276,0.277c0.895,0.117,1.225-0.013,1.254-0.489c0.068-1.116-0.211-2.237,0.171-3.348
	c0.256-0.74,0.778-0.941,2.228-0.858c0.355,0.021,0.516-0.024,0.542-0.175c0.04-0.219,0.582-0.431,0.136-0.651
	c-0.649-0.32-1.859-0.271-2.446,0.089C96.074,74.001,95.882,74.192,95.533,74.468z"/>
<path fill-rule="evenodd" clip-rule="evenodd" fill="#3E649B" d="M44.72,75.359c0,1.182-0.024,2.364,0.013,3.545
	c0.011,0.363-0.211,0.377-0.604,0.372c-0.373-0.005-0.626,0.013-0.611-0.364c0.043-0.997,0-1.997,0.023-2.997
	c0.008-0.294-0.103-0.386-0.532-0.378c-1.223,0.021-2.447,0.025-3.669-0.001c-0.477-0.01-0.553,0.108-0.545,0.408
	c0.026,0.983-0.015,1.971,0.022,2.954c0.015,0.346-0.175,0.395-0.59,0.376c-0.35-0.014-0.629,0.038-0.623-0.351
	c0.028-2.377,0.025-4.755,0-7.133c-0.005-0.346,0.213-0.358,0.568-0.341c0.319,0.016,0.673-0.086,0.648,0.335
	c-0.053,0.848-0.005,1.696-0.023,2.544c-0.004,0.227,0.062,0.314,0.417,0.311c1.288-0.016,2.576-0.016,3.863,0
	c0.372,0.004,0.468-0.079,0.463-0.333c-0.021-0.848,0.021-1.697-0.021-2.544c-0.022-0.391,0.309-0.307,0.608-0.311
	c0.311-0.002,0.62-0.068,0.605,0.319C44.693,72.967,44.72,74.164,44.72,75.359z"/>
<path fill-rule="evenodd" clip-rule="evenodd" fill="#3E649B" d="M79.881,77.688c0.543-1.139,1.087-2.275,1.627-3.414
	c0.326-0.691,0.32-0.691,1.744-0.605c-0.891,1.784-1.799,3.563-2.66,5.351c-0.164,0.343-0.609,0.231-1.002,0.254
	c-0.433,0.023-0.654-0.026-0.757-0.293c-0.431-1.127-0.929-2.244-1.405-3.366c-0.061-0.142-0.137-0.281-0.385-0.43
	c-0.312,0.737-0.625,1.477-0.936,2.214c-0.224,0.53-0.488,1.06-0.647,1.595c-0.079,0.278-0.349,0.302-0.761,0.279
	c-0.421-0.023-0.906,0.101-1.078-0.272c-0.606-1.339-1.278-2.667-1.924-4c-0.213-0.438-0.424-0.878-0.633-1.316
	c0.071-0.018,0.119-0.041,0.17-0.042c1.318-0.032,1.324-0.032,1.615,0.625c0.502,1.135,0.996,2.268,1.494,3.402
	c0.037,0.084,0.001,0.188,0.264,0.226c0.546-1.294,1.115-2.581,1.62-3.877c0.126-0.323,0.381-0.396,0.978-0.397
	c0.602-0.002,0.846,0.077,0.967,0.395c0.459,1.226,0.983,2.444,1.484,3.665C79.73,77.681,79.806,77.684,79.881,77.688z"/>
<path fill-rule="evenodd" clip-rule="evenodd" fill="#3E649B" d="M68.275,78.593c-1.871,1.08-4.248,0.971-5.48-0.268
	c-1.281-1.286-1.246-2.64,0.115-3.909c1.176-1.101,3.461-1.154,5.281-0.109c0-0.607,0-1.138,0-1.667
	c0-0.256,0.041-0.516-0.012-0.771c-0.066-0.325,0.1-0.447,0.786-0.431c0.569,0.014,0.722,0.085,0.72,0.379
	c-0.023,2.361-0.018,4.724-0.008,7.083c0.002,0.235,0.014,0.404-0.618,0.381c-0.489-0.02-0.87-0.017-0.752-0.354
	C68.338,78.841,68.294,78.749,68.275,78.593z M63.485,76.439c-0.022,0.46,0.051,0.958,0.527,1.409
	c0.425,0.403,1.011,0.707,1.984,0.689c0.927-0.015,1.53-0.306,1.856-0.713c0.75-0.938,0.685-1.892-0.109-2.813
	c-0.35-0.404-1.008-0.659-1.938-0.649c-0.943,0.01-1.479,0.313-1.856,0.71C63.556,75.488,63.475,75.94,63.485,76.439z"/>
<path fill-rule="evenodd" clip-rule="evenodd" fill="#3E649B" d="M54.951,79.251c-1.924,0.021-1.455,0.161-1.922-0.723
	c-0.771,0.333-1.499,0.674-2.508,0.783c-1.67,0.181-3.194-0.224-3.637-0.997c-0.533-0.937,0.287-1.87,1.963-2.137
	c0.996-0.16,2.045-0.229,3.06-0.363c0.385-0.052,0.968-0.019,1.037-0.309c0.081-0.332,0.032-0.67-0.538-0.913
	c-1.185-0.501-3.264-0.241-3.776,0.504c-0.329,0.479-0.845,0.119-1.261,0.108c-0.625-0.015-0.247-0.241-0.182-0.36
	c0.375-0.687,1.232-1.104,2.611-1.233c0.814-0.077,1.615-0.094,2.429,0.002c1.357,0.159,2.095,0.56,2.155,1.283
	c0.084,0.997,0.084,1.996,0.126,2.994C54.527,78.344,54.517,78.799,54.951,79.251z M52.934,76.464
	c-1.129,0.24-2.315,0.302-3.453,0.46c-0.764,0.108-1.151,0.396-1.141,0.805c0.01,0.392,0.396,0.654,1.12,0.771
	c1.392,0.225,2.955-0.234,3.344-0.971C52.985,77.188,52.977,76.844,52.934,76.464z"/>
<path fill-rule="evenodd" clip-rule="evenodd" fill="#3E649B" d="M90.363,78.498c-0.801,0.376-1.525,0.693-2.502,0.806
	c-1.709,0.196-3.273-0.222-3.694-1.012c-0.504-0.944,0.329-1.855,2.019-2.121c0.999-0.155,2.047-0.226,3.061-0.362
	c0.377-0.051,0.955-0.014,1.004-0.326c0.051-0.318,0.012-0.638-0.514-0.874c-1.141-0.515-3.33-0.268-3.792,0.467
	c-0.311,0.495-0.825,0.147-1.236,0.138c-0.667-0.016-0.292-0.257-0.216-0.389c0.396-0.684,1.265-1.095,2.645-1.217
	c0.816-0.073,1.619-0.088,2.43,0.01c1.304,0.154,2.047,0.561,2.109,1.256c0.084,0.936,0.072,1.876,0.119,2.813
	c0.023,0.524-0.026,1.056,0.434,1.558C90.514,79.276,90.688,79.439,90.363,78.498z M90.235,76.453
	c-1.159,0.264-2.327,0.312-3.44,0.468c-0.766,0.107-1.162,0.391-1.158,0.8c0.004,0.411,0.424,0.681,1.186,0.789
	c1.42,0.2,2.911-0.268,3.293-1.016C90.281,77.168,90.262,76.84,90.235,76.453z"/>
<path fill-rule="evenodd" clip-rule="evenodd" fill="#3E649B" d="M104.305,76.728c-0.934,0-1.868,0.009-2.8-0.005
	c-0.427-0.005-0.567,0.052-0.478,0.281c0.147,0.372,0.294,0.741,0.77,1.048c1.217,0.788,3.268,0.63,4.014-0.356
	c0.412-0.544,1.025-0.231,1.51-0.16c0.594,0.089,0.105,0.329,0.016,0.462c-0.57,0.839-1.732,1.306-3.455,1.359
	c-1.647,0.051-3.139-0.392-3.793-1.193c-0.931-1.139-0.908-2.311,0.05-3.438c0.649-0.765,1.892-1.188,3.546-1.175
	c1.625,0.015,2.709,0.489,3.385,1.228c0.486,0.53,0.576,1.102,0.594,1.681c0.008,0.228-0.154,0.278-0.557,0.272
	C106.172,76.718,105.238,76.725,104.305,76.728z M103.625,75.907c0.643,0,1.285-0.015,1.922,0.004
	c0.434,0.012,0.535-0.051,0.49-0.277c-0.137-0.686-1.049-1.227-2.203-1.269c-1.276-0.046-2.324,0.402-2.653,1.128
	c-0.12,0.271-0.12,0.46,0.61,0.419C102.396,75.879,103.016,75.907,103.625,75.907z"/>
<path fill-rule="evenodd" clip-rule="evenodd" fill="#3E649B" d="M58.236,74.471c0.299-0.245,0.467-0.398,0.665-0.539
	c0.618-0.438,1.73-0.523,2.55-0.194c0.517,0.208-0.021,0.403-0.072,0.601c-0.033,0.133-0.055,0.307-0.528,0.241
	c-1.459-0.197-2.138,0.29-2.308,0.924c-0.294,1.098-0.12,2.203-0.113,3.304c0.004,0.421-0.246,0.493-0.966,0.478
	c-0.543-0.012-0.598-0.122-0.596-0.354c0.015-1.647,0.026-3.296-0.009-4.942c-0.008-0.321,0.227-0.353,0.75-0.368
	c0.597-0.015,0.688,0.115,0.631,0.368C58.215,74.107,58.236,74.229,58.236,74.471z"/>
<path fill-rule="evenodd" clip-rule="evenodd" fill="#3E649B" d="M95.533,74.468c0.349-0.275,0.541-0.467,0.802-0.626
	c0.587-0.36,1.797-0.409,2.446-0.089c0.446,0.221-0.096,0.433-0.136,0.651c-0.026,0.15-0.187,0.196-0.542,0.175
	c-1.449-0.083-1.972,0.118-2.228,0.858c-0.382,1.11-0.103,2.231-0.171,3.348c-0.029,0.477-0.359,0.606-1.254,0.489
	c-0.353-0.043-0.276-0.165-0.276-0.277c-0.003-1.692,0.012-3.385-0.016-5.077c-0.005-0.311,0.306-0.288,0.706-0.292
	c0.408-0.002,0.765-0.015,0.676,0.293C95.497,74.065,95.533,74.214,95.533,74.468z"/>
<path fill-rule="evenodd" clip-rule="evenodd" fill="#FFFFFF" d="M63.485,76.439c-0.011-0.499,0.07-0.951,0.465-1.366
	c0.378-0.396,0.913-0.7,1.856-0.71c0.93-0.01,1.588,0.245,1.938,0.649c0.794,0.921,0.859,1.875,0.109,2.813
	c-0.326,0.407-0.93,0.698-1.856,0.713c-0.974,0.018-1.56-0.286-1.984-0.689C63.536,77.397,63.463,76.899,63.485,76.439z"/>
<path fill-rule="evenodd" clip-rule="evenodd" fill="#FFFFFF" d="M52.934,76.464c0.043,0.38,0.052,0.724-0.13,1.064
	c-0.389,0.736-1.952,1.195-3.344,0.971c-0.724-0.116-1.11-0.379-1.12-0.771c-0.011-0.408,0.377-0.696,1.141-0.805
	C50.618,76.766,51.805,76.704,52.934,76.464z"/>
<path fill-rule="evenodd" clip-rule="evenodd" fill="#FFFFFF" d="M90.235,76.453c0.026,0.387,0.046,0.715-0.12,1.041
	c-0.382,0.748-1.873,1.216-3.293,1.016c-0.762-0.108-1.182-0.378-1.186-0.789c-0.004-0.409,0.393-0.692,1.158-0.8
	C87.908,76.765,89.076,76.717,90.235,76.453z"/>
<path fill-rule="evenodd" clip-rule="evenodd" fill="#FFFFFF" d="M103.625,75.907c-0.609,0-1.229-0.028-1.834,0.005
	c-0.73,0.041-0.73-0.148-0.61-0.419c0.329-0.726,1.377-1.174,2.653-1.128c1.154,0.042,2.066,0.583,2.203,1.269
	c0.045,0.227-0.057,0.289-0.49,0.277C104.91,75.893,104.268,75.907,103.625,75.907z"/>
</svg>
