<svg width="175" height="105" xmlns="http://www.w3.org/2000/svg">

 <g>
  <title>background</title>
  <rect fill="none" id="canvas_background" height="402" width="582" y="-1" x="-1"/>
 </g>
 <g>
  <title>Layer 1</title>
  <g id="svg_1">
   <g id="svg_2">
    <path id="svg_3" d="m137.464,65.585c-32.737,0 -65.476,-0.001 -98.213,0.005c-0.21,0 -0.257,-0.046 -0.257,-0.265c0.006,-10.173 0.006,-20.345 0.006,-30.516c0.113,-0.002 0.224,-0.004 0.335,-0.004c32.594,0 65.19,0 97.784,-0.007c0.281,0 0.347,0.07 0.346,0.36c-0.011,10.017 -0.009,20.035 -0.009,30.053c-0.001,0.124 0.005,0.25 0.008,0.374zm-73.215,-11.66c0.604,-0.236 1.181,-0.466 1.759,-0.694c0.847,-0.331 1.694,-0.667 2.543,-0.997c1.464,-0.567 2.931,-1.13 4.397,-1.69c0.154,-0.06 0.15,-0.146 0.131,-0.287c-0.096,-0.725 -0.39,-1.374 -0.702,-2.013c-0.173,-0.352 -0.406,-0.686 -0.667,-0.978c-0.767,-0.864 -1.704,-1.47 -2.807,-1.753c-2.407,-0.618 -4.69,-0.414 -6.754,1.16c-0.959,0.73 -1.64,1.685 -1.984,2.844c-0.428,1.44 -0.395,2.886 0.242,4.288c0.244,0.538 0.569,1.007 0.93,1.45c0.188,0.231 0.412,0.441 0.646,0.625c0.976,0.766 2.072,1.248 3.285,1.446c2.833,0.471 5.378,-0.165 7.617,-2.089c-0.579,-0.426 -1.124,-0.814 -1.659,-1.226c-0.558,-0.423 -0.545,-0.417 -1.128,-0.041c-0.462,0.304 -0.95,0.553 -1.483,0.703c-0.991,0.272 -1.984,0.277 -2.975,0.018c-0.512,-0.128 -0.973,-0.386 -1.391,-0.766zm57.667,-8.737c-0.126,0.007 -0.293,0.013 -0.458,0.023c-1.951,0.121 -3.63,0.877 -4.954,2.377c-0.589,0.667 -0.988,1.476 -1.204,2.349c-0.256,1.049 -0.251,2.099 0.109,3.139c0.225,0.651 0.505,1.252 0.907,1.795c0.387,0.521 0.854,0.961 1.373,1.325c1.074,0.746 2.271,1.159 3.563,1.258c1.452,0.11 2.843,-0.128 4.153,-0.816c0.714,-0.378 1.335,-0.87 1.883,-1.481c0.689,-0.771 1.134,-1.673 1.346,-2.679c0.305,-1.491 0.032,-2.898 -0.767,-4.195c-0.478,-0.775 -1.089,-1.386 -1.822,-1.888c-1.248,-0.842 -2.624,-1.183 -4.129,-1.207zm-26.695,0c-1.311,0.025 -2.566,0.318 -3.738,1c-1.137,0.663 -1.991,1.593 -2.567,2.792c-0.296,0.614 -0.415,1.299 -0.45,1.984c-0.078,1.572 0.331,2.963 1.35,4.161c0.447,0.523 0.957,0.964 1.528,1.313c1.015,0.617 2.122,0.955 3.296,1.028c1.575,0.097 3.065,-0.199 4.436,-1.042c0.455,-0.277 0.863,-0.608 1.251,-0.99c0.614,-0.602 1.093,-1.304 1.356,-2.114c0.621,-1.924 0.438,-3.753 -0.779,-5.415c-0.352,-0.477 -0.752,-0.887 -1.213,-1.247c-1.321,-1.031 -2.828,-1.443 -4.47,-1.47zm-17.381,1.823c0,-0.479 -0.009,-0.92 0.003,-1.362c0.005,-0.194 -0.039,-0.263 -0.242,-0.261c-1.014,0.012 -2.028,0.01 -3.04,0c-0.177,0 -0.234,0.042 -0.233,0.236c0.006,3.807 0.006,7.615 0,11.424c0,0.19 0.056,0.242 0.233,0.238c0.977,-0.009 1.954,-0.013 2.93,0.004c0.268,0.004 0.358,-0.047 0.357,-0.355c-0.016,-2.15 -0.004,-4.299 -0.01,-6.448c-0.004,-0.822 0.366,-1.448 0.978,-1.9c0.708,-0.523 1.527,-0.662 2.387,-0.524c0.759,0.119 1.411,0.464 1.911,1.063c0.317,0.384 0.437,0.861 0.436,1.369c-0.002,2.17 0.003,4.338 -0.006,6.509c0,0.225 0.057,0.291 0.277,0.291c0.995,-0.015 1.989,-0.013 2.985,-0.005c0.183,0.005 0.255,-0.029 0.255,-0.246c-0.008,-2.399 -0.003,-4.802 -0.004,-7.199c0,-1.035 -0.295,-1.967 -0.91,-2.778c-0.192,-0.255 -0.414,-0.493 -0.661,-0.69c-0.793,-0.633 -1.696,-1.002 -2.693,-1.124c-1.898,-0.233 -3.549,0.298 -4.953,1.758zm37.833,-1.616c-1.284,0 -2.56,0.001 -3.833,-0.004c-0.132,-0.001 -0.174,0.061 -0.212,0.17c-0.175,0.472 -0.353,0.944 -0.535,1.412c-0.392,0.994 -0.784,1.991 -1.165,2.992c-0.318,0.848 -0.688,1.671 -0.955,2.538c-0.099,0.316 -0.285,0.586 -0.39,0.914c-0.371,-0.924 -0.733,-1.826 -1.099,-2.734c-0.196,-0.489 -0.334,-1.004 -0.564,-1.487c-0.25,-0.518 -0.404,-1.081 -0.622,-1.616c-0.263,-0.661 -0.551,-1.315 -0.767,-1.997c-0.051,-0.16 -0.137,-0.191 -0.285,-0.19c-0.816,0.007 -1.639,0.004 -2.454,0.004c-0.437,0 -0.868,0 -1.294,0c-0.046,0.173 0.104,0.224 0.146,0.336c0.389,1 0.826,1.98 1.276,2.948c0.195,0.418 0.356,0.854 0.55,1.276c0.43,0.935 0.814,1.896 1.252,2.831c0.191,0.41 0.354,0.836 0.535,1.248c0.436,0.99 0.868,1.979 1.299,2.968c0.09,0.204 0.176,0.292 0.403,0.287c1.069,-0.015 2.138,-0.015 3.207,0c0.272,0.006 0.399,-0.108 0.492,-0.343c0.368,-0.933 0.79,-1.843 1.196,-2.762c0.396,-0.899 0.785,-1.8 1.187,-2.699c0.412,-0.927 0.806,-1.861 1.215,-2.788c0.272,-0.606 0.545,-1.211 0.784,-1.83c0.196,-0.494 0.504,-0.932 0.633,-1.474zm-67.528,4.164c0,2.478 0,4.953 -0.001,7.43c0,0.175 -0.016,0.303 0.235,0.303c3.643,-0.01 7.289,-0.01 10.933,-0.002c0.205,0 0.244,-0.071 0.242,-0.262c-0.008,-0.82 -0.013,-1.641 0.001,-2.459c0.005,-0.252 -0.069,-0.298 -0.295,-0.298c-2.418,0.01 -4.836,0 -7.252,0.013c-0.275,0 -0.334,-0.077 -0.333,-0.351c0.009,-3.933 0.005,-7.867 0.011,-11.798c0,-0.242 -0.061,-0.305 -0.293,-0.302c-0.975,0.015 -1.953,0.015 -2.929,0c-0.244,-0.001 -0.327,0.053 -0.326,0.328c0.011,2.463 0.007,4.93 0.007,7.398zm83.837,6.587c0,0.354 0.006,0.648 -0.002,0.942c-0.008,0.146 0.035,0.202 0.186,0.2c0.145,-0.004 0.193,-0.052 0.189,-0.203c-0.008,-0.413 -0.021,-0.828 0.004,-1.24c0.018,-0.271 -0.098,-0.298 -0.305,-0.284c-0.117,0.011 -0.154,0.082 -0.207,0.163c-0.131,0.217 -0.246,0.44 -0.461,0.6c-0.128,-0.205 -0.254,-0.405 -0.375,-0.605c-0.103,-0.165 -0.265,-0.179 -0.418,-0.145c-0.158,0.04 -0.074,0.194 -0.078,0.295c-0.01,0.403 -0.002,0.808 -0.006,1.211c-0.002,0.116 0.004,0.203 0.155,0.209c0.157,0.006 0.155,-0.087 0.153,-0.2c-0.004,-0.302 -0.002,-0.606 -0.002,-0.942c0.306,0.192 0.363,0.527 0.572,0.732c0.261,-0.165 0.347,-0.478 0.595,-0.733zm-2.591,-0.58c-0.193,0 -0.393,0.002 -0.586,0c-0.098,-0.002 -0.152,0.021 -0.154,0.145c-0.004,0.133 0.054,0.163 0.166,0.154c0.056,-0.001 0.111,0.009 0.168,0c0.182,-0.03 0.24,0.045 0.23,0.235c-0.013,0.335 0.004,0.673 -0.008,1.012c-0.003,0.151 0.068,0.171 0.188,0.173c0.129,0.004 0.155,-0.06 0.15,-0.176c-0.003,-0.261 0,-0.52 0,-0.782c0,-0.432 0,-0.433 0.402,-0.458c0.091,-0.005 0.158,-0.005 0.16,-0.136c0,-0.123 -0.033,-0.173 -0.158,-0.168c-0.185,0.008 -0.373,0.001 -0.558,0.001z" fill="#E1231A"/>
    <path id="svg_4" d="m137.464,65.585c-0.003,-0.124 -0.009,-0.25 -0.009,-0.374c0,-10.02 -0.002,-20.034 0.009,-30.052c0.001,-0.291 -0.063,-0.361 -0.346,-0.361c-32.593,0.008 -65.189,0.008 -97.784,0.008c-0.111,0 -0.222,0.001 -0.335,0.002c0.013,-0.018 -0.028,-0.06 0.028,-0.06c0.073,0.003 0.148,0.002 0.224,0.002c32.671,0 65.343,0 98.015,-0.004c0.213,0 0.258,0.048 0.256,0.266c-0.006,10.104 -0.006,20.21 -0.008,30.315c0,0.082 0.066,0.194 -0.05,0.258z" fill="#F9D4D2"/>
    <path id="svg_5" d="m64.249,53.925c0.418,0.38 0.879,0.64 1.393,0.771c0.99,0.258 1.983,0.256 2.976,-0.02c0.532,-0.148 1.021,-0.399 1.483,-0.701c0.582,-0.376 0.57,-0.383 1.128,0.041c0.534,0.408 1.078,0.801 1.657,1.224c-2.238,1.928 -4.784,2.56 -7.618,2.091c-1.21,-0.198 -2.309,-0.683 -3.284,-1.447c-0.234,-0.182 -0.458,-0.393 -0.646,-0.625c-0.361,-0.443 -0.686,-0.91 -0.931,-1.447c-0.637,-1.404 -0.671,-2.851 -0.243,-4.291c0.347,-1.158 1.024,-2.113 1.984,-2.842c2.064,-1.575 4.348,-1.779 6.755,-1.161c1.103,0.282 2.039,0.888 2.808,1.753c0.26,0.292 0.494,0.625 0.667,0.979c0.313,0.636 0.607,1.289 0.703,2.012c0.018,0.141 0.022,0.228 -0.132,0.283c-1.468,0.563 -2.933,1.128 -4.397,1.694c-0.85,0.329 -1.696,0.665 -2.543,0.999c-0.578,0.221 -1.157,0.45 -1.76,0.687zm2.867,-6.113c-1.679,-0.008 -2.67,0.434 -3.33,1.456c-0.445,0.689 -0.617,1.493 -0.553,2.332c0.015,0.174 0.113,0.192 0.256,0.133c0.248,-0.106 0.498,-0.203 0.75,-0.3c1.609,-0.632 3.219,-1.264 4.833,-1.88c0.229,-0.088 0.245,-0.13 0.101,-0.359c-0.605,-0.974 -1.484,-1.367 -2.057,-1.382z" fill="#FEFDFD"/>
    <path id="svg_6" d="m121.916,45.188c1.505,0.023 2.881,0.366 4.127,1.207c0.732,0.5 1.348,1.112 1.822,1.888c0.801,1.298 1.072,2.704 0.767,4.197c-0.21,1.006 -0.653,1.907 -1.346,2.677c-0.55,0.611 -1.168,1.104 -1.886,1.482c-1.308,0.689 -2.697,0.93 -4.15,0.815c-1.293,-0.099 -2.488,-0.511 -3.563,-1.259c-0.521,-0.364 -0.986,-0.803 -1.373,-1.324c-0.401,-0.543 -0.684,-1.146 -0.905,-1.795c-0.363,-1.042 -0.369,-2.091 -0.11,-3.138c0.213,-0.872 0.614,-1.684 1.204,-2.35c1.324,-1.5 3.002,-2.254 4.951,-2.377c0.172,-0.01 0.337,-0.015 0.462,-0.023zm0.038,9.49c0.149,-0.01 0.297,-0.017 0.444,-0.028c1.438,-0.159 2.572,-1.195 2.826,-2.583c0.248,-1.349 -0.132,-2.486 -1.188,-3.332c-0.868,-0.69 -1.859,-0.867 -2.922,-0.646c-0.994,0.206 -1.764,0.777 -2.205,1.701c-0.563,1.179 -0.492,2.895 0.732,3.986c0.679,0.601 1.443,0.87 2.313,0.902z" fill="#FEFDFD"/>
    <path id="svg_7" d="m95.221,45.188c1.645,0.025 3.147,0.438 4.469,1.467c0.461,0.359 0.86,0.769 1.211,1.248c1.219,1.662 1.4,3.491 0.779,5.413c-0.264,0.811 -0.744,1.515 -1.355,2.116c-0.387,0.382 -0.797,0.711 -1.249,0.99c-1.373,0.841 -2.863,1.139 -4.437,1.041c-1.176,-0.072 -2.283,-0.41 -3.297,-1.027c-0.57,-0.348 -1.08,-0.788 -1.529,-1.316c-1.017,-1.196 -1.426,-2.586 -1.349,-4.156c0.037,-0.688 0.156,-1.369 0.451,-1.984c0.575,-1.2 1.431,-2.13 2.567,-2.793c1.172,-0.679 2.428,-0.972 3.739,-0.999zm0.031,9.49c1.264,-0.041 2.146,-0.479 2.823,-1.484c0.672,-1.002 0.659,-2.84 -0.151,-3.848c-0.642,-0.797 -1.433,-1.243 -2.404,-1.323c-1.687,-0.138 -3.029,0.672 -3.537,2.348c-0.346,1.138 -0.092,2.2 0.686,3.121c0.688,0.813 1.565,1.151 2.583,1.186z" fill="#FEFDFD"/>
    <path id="svg_8" d="m77.84,47.011c1.405,-1.46 3.054,-1.991 4.957,-1.76c0.997,0.12 1.9,0.49 2.693,1.123c0.246,0.198 0.469,0.436 0.661,0.69c0.614,0.814 0.909,1.747 0.91,2.778c0,2.399 -0.004,4.802 0.004,7.199c0.001,0.217 -0.07,0.25 -0.255,0.25c-0.996,-0.012 -1.991,-0.012 -2.985,0c-0.221,0.004 -0.276,-0.061 -0.276,-0.29c0.009,-2.169 0.002,-4.335 0.005,-6.507c0.001,-0.508 -0.119,-0.986 -0.436,-1.371c-0.501,-0.599 -1.153,-0.942 -1.911,-1.062c-0.862,-0.137 -1.681,0.002 -2.387,0.526c-0.613,0.45 -0.982,1.076 -0.979,1.899c0.006,2.147 -0.005,4.297 0.011,6.448c0,0.309 -0.09,0.359 -0.358,0.355c-0.976,-0.018 -1.953,-0.013 -2.93,-0.002c-0.178,0 -0.233,-0.045 -0.233,-0.24c0.006,-3.809 0.006,-7.617 0,-11.423c0,-0.194 0.055,-0.237 0.233,-0.236c1.014,0.007 2.027,0.01 3.04,-0.001c0.204,0 0.249,0.066 0.242,0.26c-0.016,0.444 -0.006,0.886 -0.006,1.364z" fill="#FEFDFD"/>
    <path id="svg_9" d="m115.673,45.395c-0.129,0.54 -0.438,0.981 -0.628,1.474c-0.24,0.618 -0.512,1.225 -0.783,1.831c-0.412,0.926 -0.803,1.86 -1.215,2.788c-0.398,0.898 -0.788,1.8 -1.186,2.7c-0.409,0.918 -0.829,1.825 -1.199,2.761c-0.094,0.234 -0.221,0.35 -0.49,0.343c-1.068,-0.017 -2.14,-0.015 -3.209,0c-0.229,0.004 -0.313,-0.083 -0.4,-0.287c-0.433,-0.988 -0.867,-1.976 -1.299,-2.968c-0.184,-0.414 -0.346,-0.839 -0.537,-1.248c-0.438,-0.934 -0.824,-1.895 -1.25,-2.831c-0.192,-0.422 -0.355,-0.858 -0.553,-1.276c-0.449,-0.97 -0.888,-1.949 -1.277,-2.948c-0.041,-0.112 -0.191,-0.163 -0.145,-0.336c0.424,0 0.857,0 1.294,0c0.815,0 1.638,0.002 2.452,-0.004c0.148,-0.001 0.236,0.029 0.286,0.189c0.218,0.681 0.503,1.337 0.769,1.997c0.215,0.537 0.371,1.098 0.62,1.616c0.229,0.481 0.37,0.997 0.565,1.487c0.361,0.906 0.726,1.813 1.096,2.733c0.104,-0.328 0.291,-0.597 0.389,-0.914c0.271,-0.867 0.639,-1.69 0.957,-2.537c0.381,-1.001 0.776,-1.998 1.166,-2.992c0.184,-0.47 0.361,-0.94 0.532,-1.412c0.04,-0.106 0.083,-0.171 0.215,-0.17c1.268,0.005 2.546,0.004 3.83,0.004z" fill="#FEFDFD"/>
    <path id="svg_10" d="m48.145,49.559c0,-2.466 0.004,-4.931 -0.007,-7.399c0,-0.276 0.08,-0.33 0.325,-0.328c0.978,0.014 1.954,0.014 2.93,0c0.232,-0.004 0.293,0.061 0.293,0.302c-0.006,3.931 -0.001,7.866 -0.011,11.798c0,0.273 0.058,0.354 0.333,0.351c2.417,-0.013 4.834,-0.003 7.251,-0.013c0.227,0 0.302,0.048 0.296,0.296c-0.016,0.819 -0.01,1.64 -0.001,2.46c0.001,0.191 -0.038,0.263 -0.242,0.263c-3.646,-0.008 -7.291,-0.008 -10.936,0.002c-0.249,0 -0.233,-0.128 -0.233,-0.302c0.002,-2.476 0.002,-4.953 0.002,-7.43z" fill="#FEFDFD"/>
    <path id="svg_11" d="m131.982,56.146c-0.25,0.255 -0.334,0.569 -0.592,0.731c-0.211,-0.209 -0.271,-0.541 -0.572,-0.731c0,0.336 -0.002,0.639 0.002,0.939c0.002,0.114 0.002,0.205 -0.154,0.199c-0.15,-0.004 -0.157,-0.091 -0.154,-0.205c0.002,-0.404 -0.005,-0.81 0.004,-1.215c0.006,-0.099 -0.078,-0.253 0.08,-0.292c0.152,-0.035 0.314,-0.021 0.416,0.143c0.122,0.203 0.25,0.403 0.375,0.608c0.215,-0.159 0.332,-0.387 0.461,-0.602c0.053,-0.08 0.092,-0.154 0.209,-0.162c0.207,-0.015 0.322,0.014 0.305,0.282c-0.025,0.413 -0.014,0.826 -0.004,1.241c0.004,0.151 -0.049,0.197 -0.19,0.201c-0.149,0.004 -0.192,-0.054 -0.187,-0.199c0.007,-0.289 0.001,-0.584 0.001,-0.938z" fill="#FEFDFD"/>
    <path id="svg_12" d="m129.391,55.566c0.187,0 0.373,0.007 0.56,-0.002c0.125,-0.008 0.157,0.046 0.157,0.168c-0.002,0.132 -0.068,0.132 -0.159,0.133c-0.402,0.029 -0.402,0.032 -0.402,0.463c0,0.262 -0.004,0.52 0.002,0.78c0.003,0.115 -0.022,0.181 -0.151,0.179c-0.119,-0.004 -0.19,-0.021 -0.188,-0.176c0.013,-0.338 -0.007,-0.675 0.008,-1.011c0.009,-0.19 -0.05,-0.265 -0.231,-0.235c-0.055,0.01 -0.11,-0.001 -0.168,0c-0.111,0.012 -0.168,-0.021 -0.166,-0.158c0.004,-0.122 0.061,-0.144 0.156,-0.14c0.189,0.001 0.386,-0.001 0.582,-0.001z" fill="#FEFDFD"/>
    <path id="svg_13" d="m67.116,47.812c0.573,0.016 1.453,0.407 2.059,1.38c0.143,0.229 0.127,0.271 -0.101,0.36c-1.614,0.615 -3.224,1.248 -4.833,1.879c-0.251,0.098 -0.502,0.19 -0.75,0.3c-0.144,0.06 -0.242,0.047 -0.256,-0.134c-0.064,-0.839 0.108,-1.643 0.553,-2.331c0.658,-1.018 1.647,-1.459 3.328,-1.454z" fill="#E1231A"/>
    <path id="svg_14" d="m121.954,54.678c-0.87,-0.032 -1.634,-0.3 -2.312,-0.902c-1.226,-1.094 -1.297,-2.808 -0.732,-3.986c0.441,-0.926 1.211,-1.495 2.205,-1.701c1.063,-0.221 2.054,-0.044 2.922,0.646c1.057,0.846 1.436,1.983 1.188,3.332c-0.254,1.388 -1.388,2.424 -2.826,2.583c-0.148,0.012 -0.295,0.018 -0.445,0.028z" fill="#E1231A"/>
    <path id="svg_15" d="m95.252,54.678c-1.018,-0.034 -1.896,-0.373 -2.583,-1.186c-0.778,-0.922 -1.032,-1.983 -0.688,-3.121c0.508,-1.676 1.853,-2.486 3.539,-2.348c0.972,0.083 1.76,0.526 2.402,1.323c0.814,1.008 0.822,2.844 0.15,3.848c-0.676,1.004 -1.556,1.447 -2.82,1.484z" fill="#E1231A"/>
   </g>
  </g>
  <path id="svg_16" d="m131.75,54c-6.448,0 -6.448,10 0,10s6.448,-10 0,-10z" fill="#E1231A"/>
  <text font-weight="bold" xml:space="preserve" text-anchor="start" font-family="Helvetica, Arial, sans-serif" font-size="11" id="svg_17" y="78.9375" x="59" fill-opacity="null" stroke-opacity="null" stroke-width="0" stroke="null" fill="#000000">Corporativo</text>
 </g>
</svg>