<?xml version="1.0" encoding="utf-8"?>
<!-- Generator: Adobe Illustrator 16.0.0, SVG Export Plug-In . SVG Version: 6.00 Build 0)  -->
<!DOCTYPE svg PUBLIC "-//W3C//DTD SVG 1.1//EN" "http://www.w3.org/Graphics/SVG/1.1/DTD/svg11.dtd">
<svg version="1.1" id="Capa_1" xmlns="http://www.w3.org/2000/svg" xmlns:xlink="http://www.w3.org/1999/xlink" x="0px" y="0px"
	 width="175px" height="105px" viewBox="0 0 175 105" enable-background="new 0 0 175 105" xml:space="preserve">
<g>
	<path fill="#F25022" d="M21,41.594h13.411c-0.001,4.293,0,8.586-0.001,12.878c-4.469,0-8.939,0-13.409,0L21,41.594L21,41.594z"/>
	<path fill="#FEFEFE" d="M34.411,41.594h1.368c0,4.293,0,8.586,0,12.878c4.469,0,8.939,0,13.407,0c0.002-4.293,0-8.586,0-12.878H153
		V51.61c-0.958,0.004-1.915-0.006-2.87,0.006c-0.021-1.163-0.002-2.326-0.011-3.487c-0.956,0.276-1.909,0.571-2.87,0.834
		c-0.021,0.882-0.002,1.764-0.012,2.646c-1.418,0-2.83,0.002-4.243-0.001c0.02-0.694-0.05-1.394,0.055-2.085
		c0.086-0.544,0.416-1.088,0.969-1.299c0.695-0.275,1.476-0.091,2.134,0.188c-0.002-0.795,0.008-1.593-0.004-2.387
		c-1.394-0.368-2.99-0.296-4.227,0.477c-0.797,0.491-1.377,1.274-1.636,2.145c-0.309,0.963-0.15,1.98-0.199,2.969
		c-0.671-0.005-1.344-0.011-2.01,0.003c0.008,0.745,0.005,1.488,0.001,2.231c0.674,0.014,1.345-0.001,2.019,0.012
		c-0.007,3.131-0.001,6.262-0.001,9.392c0.967,0,1.932,0,2.899,0c0-3.132,0-6.264,0.001-9.395c1.413-0.003,2.831-0.001,4.244,0
		c0.007,1.995-0.005,3.992,0.005,5.987c0.012,0.929,0.179,1.924,0.818,2.659c0.556,0.648,1.436,0.946,2.288,1.007
		c0.893,0.06,1.822-0.043,2.649-0.39v5.549H49.187c0-4.293,0-8.587,0-12.879c-4.468,0-8.938-0.002-13.407,0.001
		c-0.001,4.291,0,8.585,0,12.878h-1.368c0-4.293,0-8.587,0-12.878c-4.471-0.003-8.941,0-13.411-0.003v-1.314
		c4.47,0,8.939,0,13.408,0C34.411,50.18,34.408,45.886,34.411,41.594L34.411,41.594z"/>
	<path fill="#80BA01" d="M35.779,41.594h13.409c0,4.293,0.001,8.586-0.002,12.878c-4.468,0-8.937,0-13.406,0
		C35.778,50.18,35.779,45.886,35.779,41.594L35.779,41.594z"/>
	<path fill="#777777" d="M141.922,46.501c1.236-0.772,2.832-0.845,4.226-0.477c0.012,0.794,0.004,1.591,0.006,2.387
		c-0.662-0.28-1.44-0.462-2.135-0.188c-0.554,0.211-0.884,0.755-0.968,1.299c-0.104,0.691-0.036,1.391-0.056,2.085
		c1.413,0.003,2.826,0.001,4.244,0.001c0.009-0.881-0.012-1.764,0.011-2.645c0.962-0.263,1.916-0.559,2.871-0.834
		c0.009,1.161-0.012,2.324,0.009,3.487c0.956-0.013,1.914-0.002,2.871-0.006v2.263c-0.961-0.037-1.922-0.01-2.882-0.013
		c0.007,1.301,0.002,2.6,0.004,3.901c0.015,0.718-0.04,1.443,0.045,2.16c0.057,0.424,0.215,0.894,0.631,1.112
		c0.688,0.373,1.567,0.209,2.204-0.2v2.285c-0.829,0.349-1.757,0.451-2.65,0.388c-0.851-0.058-1.732-0.354-2.287-1.007
		c-0.642-0.734-0.808-1.729-0.819-2.657c-0.009-1.995,0.002-3.991-0.004-5.989c-1.414-0.001-2.832-0.002-4.245,0.001
		c-0.002,3.133-0.001,6.263-0.001,9.396c-0.965,0-1.933,0-2.9,0c0-3.13-0.003-6.261,0.002-9.392
		c-0.674-0.014-1.345,0.002-2.018-0.012c0.004-0.743,0.006-1.488-0.001-2.231c0.67-0.014,1.341-0.008,2.01-0.004
		c0.049-0.988-0.107-2.005,0.2-2.969C140.545,47.775,141.125,46.992,141.922,46.501L141.922,46.501z"/>
	<path fill="#777777" d="M79.829,46.664c0.585-0.086,1.219,0.105,1.605,0.546c0.456,0.481,0.539,1.247,0.203,1.809
		c-0.372,0.634-1.206,0.929-1.931,0.776c-0.753-0.129-1.38-0.802-1.347-1.552C78.337,47.455,79.024,46.751,79.829,46.664
		L79.829,46.664z"/>
	<path fill="#777777" d="M57.604,47.009c1.405,0,2.811,0,4.218,0c1.313,3.201,2.635,6.399,3.949,9.6
		c0.335,0.801,0.65,1.61,1.003,2.406c1.688-4,3.4-7.99,5.077-11.997c1.354-0.021,2.705-0.004,4.059-0.008
		c-0.004,5.414-0.002,10.828-0.001,16.242c-0.976-0.005-1.952,0.007-2.927-0.008c0.01-3.994-0.001-7.99,0.003-11.985
		c0.002-0.179-0.003-0.358-0.018-0.538c-0.056,0.084-0.108,0.169-0.153,0.26c-1.676,4.09-3.383,8.168-5.049,12.263
		c-0.695,0.023-1.39,0.002-2.085,0.013c-1.729-4.091-3.436-8.189-5.157-12.282c-0.044-0.085-0.093-0.167-0.145-0.247
		c-0.037,1.75-0.005,3.501-0.015,5.252c0,2.425-0.001,4.849,0,7.272c-0.92,0.003-1.841,0-2.76,0
		C57.604,57.836,57.602,52.423,57.604,47.009L57.604,47.009z"/>
	<path fill="#777777" d="M87.811,51.6c1.399-0.384,2.909-0.368,4.309,0.012c0.289,0.076,0.566,0.184,0.826,0.331
		c-0.016,0.887,0,1.775-0.008,2.664c-0.937-0.687-2.124-1.123-3.311-0.979c-0.942,0.084-1.845,0.554-2.41,1.286
		c-0.726,0.908-0.893,2.115-0.767,3.225c0.093,0.869,0.466,1.738,1.171,2.313c0.73,0.624,1.757,0.847,2.714,0.777
		c0.944-0.105,1.838-0.489,2.602-1.025c0.008,0.839-0.006,1.681,0.006,2.521c-1.184,0.679-2.607,0.852-3.964,0.789
		c-1.386-0.07-2.771-0.576-3.778-1.515c-1.092-1.011-1.684-2.451-1.755-3.896c-0.071-1.501,0.248-3.067,1.147-4.322
		C85.347,52.712,86.525,51.955,87.811,51.6L87.811,51.6z"/>
	<path fill="#777777" d="M107.461,51.399c1.392-0.17,2.86-0.095,4.15,0.471c1.12,0.485,2.029,1.384,2.533,2.459
		c0.536,1.146,0.669,2.429,0.577,3.673c-0.089,1.212-0.484,2.426-1.275,3.39c-0.807,1.022-2.028,1.715-3.329,1.972
		c-1.114,0.224-2.28,0.222-3.396-0.003c-1.332-0.274-2.568-1.017-3.349-2.1c-0.919-1.254-1.179-2.845-1.06-4.347
		c0.076-1.274,0.488-2.558,1.335-3.558C104.576,52.237,105.997,51.576,107.461,51.399L107.461,51.399z"/>
	<path fill="#777777" d="M119.49,51.422c1.339-0.227,2.745-0.061,4.013,0.402c0.004,0.854,0,1.707,0.002,2.56
		c-0.888-0.585-1.972-0.9-3.046-0.864c-0.543,0.021-1.138,0.241-1.386,0.735c-0.196,0.49-0.061,1.132,0.422,1.425
		c0.821,0.529,1.802,0.754,2.653,1.227c0.671,0.361,1.322,0.835,1.663,1.518c0.639,1.278,0.366,2.966-0.757,3.919
		c-1.071,0.961-2.614,1.229-4.033,1.177c-1.011-0.063-2.022-0.253-2.951-0.648c0.005-0.899-0.005-1.796,0.005-2.693
		c0.781,0.544,1.68,0.933,2.634,1.092c0.661,0.102,1.384,0.106,2-0.177c0.592-0.283,0.695-1.089,0.348-1.583
		c-0.329-0.382-0.813-0.59-1.266-0.796c-0.854-0.368-1.753-0.679-2.503-1.232c-0.528-0.394-0.928-0.951-1.082-1.578
		c-0.231-0.926-0.162-1.97,0.4-2.779C117.245,52.181,118.358,51.617,119.49,51.422L119.49,51.422z"/>
	<path fill="#777777" d="M130.572,51.395c1.448-0.172,2.985-0.078,4.307,0.562c1.152,0.553,2.046,1.553,2.491,2.709
		c0.35,0.883,0.472,1.838,0.451,2.778c0.002,1.407-0.393,2.851-1.313,3.965c-0.858,1.08-2.176,1.781-3.563,2.004
		c-1.358,0.211-2.792,0.154-4.086-0.333c-1.306-0.495-2.394-1.503-2.944-2.745c-0.573-1.266-0.636-2.691-0.457-4.044
		c0.188-1.351,0.824-2.674,1.911-3.575C128.263,51.965,129.407,51.539,130.572,51.395L130.572,51.395z"/>
	<path fill="#777777" d="M99.43,51.789c0.803-0.461,1.817-0.5,2.69-0.218c-0.004,0.929,0,1.857-0.002,2.787
		c-0.569-0.356-1.285-0.509-1.961-0.442c-0.82,0.09-1.474,0.697-1.811,1.393c-0.369,0.737-0.438,1.571-0.416,2.377
		c0,1.855,0.002,3.711,0,5.567c-0.954,0-1.903,0-2.86,0c-0.001-3.877,0.006-7.758-0.001-11.636c0.954-0.012,1.909-0.007,2.863-0.001
		c-0.004,0.666,0,1.331-0.002,1.999C98.244,52.888,98.702,52.184,99.43,51.789L99.43,51.789z"/>
	<path fill="#777777" d="M78.623,51.614c0.961-0.005,1.923-0.013,2.884,0.004c-0.012,3.878,0,7.756-0.003,11.633
		c-0.96,0-1.919,0-2.88,0C78.622,59.373,78.625,55.494,78.623,51.614L78.623,51.614z"/>
	<path fill="#FEFEFE" d="M108.325,53.608c0.868-0.055,1.798,0.183,2.426,0.791c0.667,0.634,0.93,1.55,1.001,2.428
		c0.055,0.958,0.012,1.957-0.409,2.846c-0.274,0.6-0.784,1.104-1.426,1.344c-0.748,0.277-1.591,0.292-2.361,0.099
		c-0.788-0.197-1.454-0.746-1.818-1.439c-0.469-0.897-0.536-1.932-0.442-2.915c0.092-0.894,0.413-1.813,1.121-2.428
		C106.93,53.872,107.629,53.646,108.325,53.608L108.325,53.608z"/>
	<path fill="#FEFEFE" d="M131.355,53.612c0.821-0.057,1.696,0.126,2.325,0.657c0.579,0.463,0.9,1.157,1.05,1.854
		c0.163,0.817,0.163,1.665,0.021,2.487c-0.111,0.61-0.332,1.223-0.748,1.708c-0.421,0.488-1.049,0.784-1.694,0.876
		c-0.696,0.101-1.427,0.053-2.077-0.215c-0.699-0.286-1.242-0.868-1.528-1.539c-0.343-0.798-0.411-1.683-0.343-2.535
		c0.066-0.827,0.307-1.674,0.878-2.318C129.758,53.987,130.555,53.656,131.355,53.612L131.355,53.612z"/>
	<path fill="#FEFEFE" d="M150.119,53.859c0.96,0.003,1.921-0.024,2.881,0.013v6.962c-0.637,0.409-1.514,0.57-2.206,0.199
		c-0.413-0.219-0.572-0.687-0.628-1.111c-0.088-0.718-0.031-1.442-0.047-2.161C150.121,56.459,150.123,55.159,150.119,53.859
		L150.119,53.859z"/>
	<path fill="#02A4EF" d="M21,55.787c4.47,0.002,8.939,0,13.411,0.002c0,4.292,0,8.584,0,12.879H21V55.787L21,55.787z"/>
	<path fill="#FFB902" d="M35.779,55.789c4.469-0.002,8.939-0.001,13.407-0.001c0,4.291,0,8.585,0,12.88H35.779
		C35.779,64.373,35.778,60.079,35.779,55.789L35.779,55.789z"/>
</g>
</svg>
