<?xml version="1.0" encoding="utf-8"?>
<!-- Generator: Adobe Illustrator 16.0.0, SVG Export Plug-In . SVG Version: 6.00 Build 0)  -->
<!DOCTYPE svg PUBLIC "-//W3C//DTD SVG 1.1//EN" "http://www.w3.org/Graphics/SVG/1.1/DTD/svg11.dtd">
<svg version="1.1" id="Capa_1" xmlns="http://www.w3.org/2000/svg" xmlns:xlink="http://www.w3.org/1999/xlink" x="0px" y="0px"
	 width="175px" height="105px" viewBox="0 0 175 105" enable-background="new 0 0 175 105" xml:space="preserve">
<g>
	<path fill="#FFFFFF" d="M21.729-21.244v149.483H152V-21.244H21.729z M147,49c-6.448,0-6.448-10,0-10S153.448,49,147,49z"/>
	<path fill="#BF0411" d="M78.559,55.808h7.388l-3.902-7.218l-7.163,13.045l-3.265,0.004l8.722-15.667
		c0.37-0.638,1.009-1.02,1.703-1.02c0.687,0,1.316,0.372,1.687,0.993l8.752,15.695l-3.268-0.003L87.68,58.72h-7.486L78.559,55.808
		L78.559,55.808z M112.453,58.723V45.115h-2.77v14.937c0,0.413,0.147,0.81,0.404,1.104c0.272,0.308,0.631,0.479,1.016,0.479h12.625
		l1.629-2.912H112.453L112.453,58.723z M66.649,56.288c2.688,0,4.868-2.502,4.868-5.588c0-3.085-2.179-5.586-4.868-5.586H54.534
		v16.523h2.767v-13.61h9.157c1.29,0,2.331,1.195,2.331,2.674c0,1.478-1.04,2.676-2.331,2.676l-7.801-0.003l8.262,8.264h4.022
		l-5.561-5.352L66.649,56.288L66.649,56.288z M37.495,61.635c-3.975,0-7.2-3.696-7.2-8.259s3.225-8.261,7.2-8.261h8.369
		c3.975,0,7.198,3.699,7.198,8.261c0,4.564-3.223,8.263-7.198,8.263L37.495,61.635L37.495,61.635z M45.677,58.725
		c2.575,0,4.661-2.395,4.661-5.349c0-2.955-2.085-5.348-4.661-5.348h-7.996c-2.574,0-4.662,2.393-4.662,5.348
		c0,2.954,2.087,5.349,4.662,5.349H45.677L45.677,58.725z M98.254,61.635c-3.973,0-7.2-3.696-7.2-8.259s3.228-8.261,7.2-8.261h9.944
		l-1.628,2.913h-8.13c-2.576,0-4.663,2.393-4.663,5.348c0,2.954,2.088,5.349,4.663,5.349h9.981l-1.627,2.91H98.254L98.254,61.635z
		 M132.122,58.725c-2.13,0-3.933-1.645-4.483-3.888h11.837l1.63-2.911l-13.471-0.001c0.552-2.249,2.352-3.897,4.487-3.897h8.122
		l1.635-2.913h-9.947c-3.975,0-7.2,3.699-7.2,8.261s3.226,8.259,7.2,8.259h8.542l1.628-2.91H132.122L132.122,58.725z"/>
</g>
</svg>
